<svg width="104" height="104" viewBox="0 0 104 104" fill="none" xmlns="http://www.w3.org/2000/svg">
<path d="M91.7937 3.68679C91.7831 3.72395 91.6769 4.24424 91.5548 4.83885C91.1513 6.82975 90.785 8.07738 90.3125 9.07018C89.1604 11.4858 87.4403 12.4786 82.8852 13.3705C82.3119 13.4873 81.8394 13.5935 81.8394 13.6094C81.8394 13.6254 82.3012 13.7315 82.8587 13.843C86.2511 14.512 87.9288 15.1915 89.0861 16.3489C90.2435 17.5063 90.9655 19.3007 91.6132 22.6561C91.7087 23.1498 91.799 23.5745 91.8202 23.5958C91.8362 23.6223 91.9317 23.2295 92.0273 22.7304C92.2503 21.5889 92.5635 20.2829 92.7971 19.5556C93.3705 17.7558 94.0819 16.6409 95.1914 15.8074C95.5206 15.5579 96.2532 15.1544 96.7576 14.942C97.607 14.581 99.2369 14.1403 100.946 13.8112C101.445 13.7156 101.838 13.62 101.812 13.5988C101.79 13.5829 101.382 13.4926 100.899 13.3971C98.2282 12.8874 96.439 12.2822 95.3454 11.523C94.5915 11.0027 93.8854 10.1851 93.4448 9.31439C92.9139 8.26851 92.3989 6.48997 91.9795 4.24424C91.9158 3.90446 91.8521 3.62308 91.8415 3.62308C91.8255 3.62308 91.8096 3.65493 91.7937 3.68679Z" fill="#DBD2FF"/>
<path d="M23.1815 19.916C20.6076 20.7388 20.1435 21.224 13.3291 30.1482C7.46414 37.8488 6.2827 39.5999 5.90295 41.2877L5.77637 41.8573L18.2659 41.8151L30.7553 41.7518L33.8777 30.7811C35.5866 24.7473 36.979 19.7472 37.0001 19.6417C37.0001 19.5573 34.1731 19.494 30.7343 19.5151C25.1435 19.5151 24.2996 19.5573 23.1815 19.916Z" fill="#DBD2FF"/>
<path d="M40.7567 19.7261C40.5458 19.8316 40.2715 20.1269 40.166 20.359C39.9761 20.6966 34.0479 41.4775 34.0479 41.7729C34.0479 41.8151 42.6133 41.8573 53.0563 41.8573C71.0733 41.8573 72.0648 41.8362 71.9805 41.4775C71.9172 41.2877 70.5669 36.4564 68.9636 30.7811C66.5796 22.2367 65.9889 20.359 65.5458 19.9581L65.0395 19.494H53.0774C45.3981 19.494 40.9888 19.5784 40.7567 19.7261Z" fill="#DBD2FF"/>
<path d="M69.195 20.0636C69.2794 20.3801 70.6929 25.4013 72.3385 31.2031L75.3132 41.7518L87.8027 41.8151L100.292 41.8573L100.166 41.2877C99.8281 39.7054 98.3091 37.4268 92.6128 29.9794C88.7943 24.9582 86.1782 21.7303 85.5875 21.2873C85.0601 20.8864 84.1107 20.3379 83.4567 20.0847C82.3174 19.6206 81.9588 19.5995 75.6508 19.5362L69.0474 19.4729L69.195 20.0636Z" fill="#DBD2FF"/>
<path d="M6.13443 46.0136C6.3243 46.5622 6.66186 47.3428 6.89392 47.7225C7.40026 48.5664 45.6071 95.9513 45.8814 96.0357C45.9869 96.0779 45.9236 95.6559 45.7548 95.0863C45.586 94.5377 42.1472 83.0396 38.1177 69.5373L30.797 45.022H18.3075H5.79688L6.13443 46.0136Z" fill="#DBD2FF"/>
<path d="M34.4059 46.119C34.5747 46.7308 38.1823 58.8196 42.4017 72.976C48.9629 94.9596 50.1655 98.7782 50.6296 99.1791C51.0937 99.601 51.3891 99.6643 53.0347 99.6643C54.6802 99.6643 54.9756 99.601 55.4397 99.1791C55.9039 98.7782 57.1064 94.9596 63.6676 72.976C67.887 58.8196 71.4946 46.7308 71.6634 46.119L72.001 45.0219H53.0347H34.0684L34.4059 46.119Z" fill="#DBD2FF"/>
<path d="M67.8244 69.959C63.7105 83.6935 60.3139 95.1072 60.2717 95.3392C60.124 95.9933 62.0227 93.9046 66.1367 88.9045C73.2042 80.2546 98.2887 48.9882 98.9427 48.0177C99.3013 47.4691 99.7444 46.5831 99.9342 46.0134L100.272 45.0218H87.7612H75.2717L67.8244 69.959Z" fill="#DBD2FF"/>
<path d="M17.3344 73.4823C17.3206 73.5308 17.1819 74.2104 17.0224 74.987C16.4954 77.5873 16.0169 79.2169 15.3998 80.5136C13.8951 83.6686 11.6485 84.9653 5.69902 86.1303C4.95014 86.2828 4.33301 86.4215 4.33301 86.4423C4.33301 86.4631 4.93627 86.6018 5.66435 86.7474C10.0952 87.6211 12.2864 88.5087 13.798 90.0203C15.3097 91.532 16.2527 93.8758 17.0987 98.2582C17.2235 98.9031 17.3414 99.4578 17.3691 99.4855C17.3899 99.5202 17.5147 99.0071 17.6395 98.3552C17.9308 96.8644 18.3399 95.1586 18.645 94.2086C19.3938 91.8579 20.323 90.4017 21.7722 89.3131C22.2021 88.9871 23.1591 88.4602 23.8178 88.1828C24.9272 87.7113 27.056 87.1357 29.2888 86.7058C29.9406 86.581 30.4537 86.4562 30.419 86.4284C30.3913 86.4076 29.8574 86.2897 29.2264 86.1649C25.7385 85.4992 23.4017 84.7088 21.9733 83.7172C20.9887 83.0376 20.0664 81.9697 19.4909 80.8325C18.7975 79.4665 18.1249 77.1435 17.5771 74.2104C17.4939 73.7666 17.4107 73.3991 17.3968 73.3991C17.376 73.3991 17.3552 73.4407 17.3344 73.4823Z" fill="#DBD2FF"/>
</svg>
